<?xml version="1.0" encoding="UTF-8" standalone="no"?>
<!-- Created with Inkscape (http://www.inkscape.org/) -->

<svg
   xmlns:dc="http://purl.org/dc/elements/1.1/"
   xmlns:cc="http://creativecommons.org/ns#"
   xmlns:rdf="http://www.w3.org/1999/02/22-rdf-syntax-ns#"
   xmlns:svg="http://www.w3.org/2000/svg"
   xmlns="http://www.w3.org/2000/svg"
   xmlns:sodipodi="http://sodipodi.sourceforge.net/DTD/sodipodi-0.dtd"
   xmlns:inkscape="http://www.inkscape.org/namespaces/inkscape"
   width="512mm"
   height="512mm"
   viewBox="0 0 512 512"
   version="1.1"
   id="svg1128"
   inkscape:version="0.92.3 (2405546, 2018-03-11)"
   sodipodi:docname="laboratory.svg">
  <defs
     id="defs1122" />
  <sodipodi:namedview
     id="base"
     pagecolor="#ffffff"
     bordercolor="#666666"
     borderopacity="1.0"
     inkscape:pageopacity="0.0"
     inkscape:pageshadow="2"
     inkscape:zoom="0.36"
     inkscape:cx="396.85039"
     inkscape:cy="1116.8154"
     inkscape:document-units="mm"
     inkscape:current-layer="layer1"
     showgrid="false"
     inkscape:window-width="1853"
     inkscape:window-height="1025"
     inkscape:window-x="67"
     inkscape:window-y="27"
     inkscape:window-maximized="1" />
  <metadata
     id="metadata1125">
    <rdf:RDF>
      <cc:Work
         rdf:about="">
        <dc:format>image/svg+xml</dc:format>
        <dc:type
           rdf:resource="http://purl.org/dc/dcmitype/StillImage" />
        <dc:title></dc:title>
      </cc:Work>
    </rdf:RDF>
  </metadata>
  <g
     inkscape:label="Capa 1"
     inkscape:groupmode="layer"
     id="layer1"
     transform="translate(0,215)">
    <g
       transform="matrix(3.7580509,0,0,-3.7580509,-973.97145,698.50377)"
       id="g5209">
      <g
         transform="translate(312.5,143.8333)"
         id="g1066">
        <path
           inkscape:connector-curvature="0"
           id="path1068"
           style="fill:#e0e0e0;fill-opacity:1;fill-rule:nonzero;stroke:none"
           d="m 0,0 c -13.5,-2.833 -11.607,8.244 -22.75,10 -13.75,2.167 -13.545,-9.039 -13.545,-9.039 0,-13.141 6.693,-23.794 23.795,-23.794 17.102,0 23.795,10.653 23.795,23.794 0,0 0.174,5.549 -3.795,3.206 C 7.5,4.167 3.841,0.806 0,0" />
      </g>
      <g
         transform="translate(380,134)"
         id="g1070">
        <path
           inkscape:connector-curvature="0"
           id="path1072"
           style="fill:#e0e0e0;fill-opacity:1;fill-rule:nonzero;stroke:none"
           d="m 0,0 v -7 c 0,-3.3 -2.7,-6 -6,-6 h -40.86 c 3.7,4.15 6.15,9.52 7.22,16 H -3 C -1.35,3 0,1.65 0,0" />
      </g>
      <g
         transform="translate(300,229)"
         id="g1074">
        <path
           inkscape:connector-curvature="0"
           id="path1076"
           style="fill:#ff7415;fill-opacity:1;fill-rule:nonzero;stroke:none"
           d="M 0,0 C -1.654,0 -3,1.346 -3,3 -3,4.654 -1.654,6 0,6 1.654,6 3,4.654 3,3 3,1.346 1.654,0 0,0 m 0,10 c -3.859,0 -7,-3.141 -7,-7 0,-3.859 3.141,-7 7,-7 3.859,0 7,3.141 7,7 0,3.859 -3.141,7 -7,7" />
      </g>
      <g
         transform="translate(367,201)"
         id="g1078">
        <path
           inkscape:connector-curvature="0"
           id="path1080"
           style="fill:#ff7415;fill-opacity:1;fill-rule:nonzero;stroke:none"
           d="M 0,0 C -1.103,0 -2,0.897 -2,2 -2,3.103 -1.103,4 0,4 1.103,4 2,3.103 2,2 2,0.897 1.103,0 0,0 m 0,8 c -3.309,0 -6,-2.691 -6,-6 0,-3.309 2.691,-6 6,-6 3.309,0 6,2.691 6,6 0,3.309 -2.691,6 -6,6" />
      </g>
      <g
         transform="translate(321,224)"
         id="g1082">
        <path
           inkscape:connector-curvature="0"
           id="path1084"
           style="fill:#ff7415;fill-opacity:1;fill-rule:nonzero;stroke:none"
           d="m 0,0 h -4 v -3 h -3 v -4 h 3 v -3 h 4 v 3 h 3 v 4 H 0 Z" />
      </g>
      <g
         transform="translate(314.0879,166.8555)"
         id="g1086">
        <path
           inkscape:connector-curvature="0"
           id="path1088"
           style="fill:#262626;fill-opacity:1;fill-rule:nonzero;stroke:none"
           d="m 0,0 c -3.566,2.304 -7.689,3.706 -11.924,4.056 -1.119,0.091 -2.067,-0.729 -2.158,-1.828 -0.091,-1.102 0.728,-2.068 1.828,-2.159 3.581,-0.296 7.068,-1.481 10.084,-3.428 0.335,-0.217 0.711,-0.321 1.083,-0.321 0.656,0 1.3,0.323 1.682,0.915 C 1.194,-1.837 0.928,-0.599 0,0" />
      </g>
      <g
         transform="translate(317.4834,161.5625)"
         id="g1090">
        <path
           inkscape:connector-curvature="0"
           id="path1092"
           style="fill:#262626;fill-opacity:1;fill-rule:nonzero;stroke:none"
           d="m 0,0 c -0.862,-0.691 -1,-1.949 -0.31,-2.812 1.132,-1.411 2.085,-2.955 2.833,-4.587 0.337,-0.734 1.062,-1.166 1.82,-1.166 0.279,0 0.562,0.058 0.833,0.181 C 6.18,-7.923 6.62,-6.736 6.16,-5.731 5.274,-3.801 4.148,-1.977 2.812,-0.31 2.119,0.555 0.86,0.691 0,0" />
      </g>
      <g
         transform="translate(302,180)"
         id="g1094">
        <path
           inkscape:connector-curvature="0"
           id="path1096"
           style="fill:#262626;fill-opacity:1;fill-rule:nonzero;stroke:none"
           d="m 0,0 c 1.104,0 2,0.896 2,2 v 8 c 0,1.104 -0.896,2 -2,2 -1.104,0 -2,-0.896 -2,-2 V 2 C -2,0.896 -1.104,0 0,0" />
      </g>
      <g
         transform="translate(300,115)"
         id="g1098">
        <path
           inkscape:connector-curvature="0"
           id="path1100"
           style="fill:#262626;fill-opacity:1;fill-rule:nonzero;stroke:none"
           d="m 0,0 c -26.103,0 -30,18.796 -30,30 0,10.381 5.257,19.881 14.062,25.413 1.988,1.248 4.794,2.375 4.823,2.386 1.776,0.71 3.115,2.686 3.115,4.598 V 82 h 6 c 1.104,0 2,0.896 2,2 0,1.104 -0.896,2 -2,2 h -6 -2 c -1.654,0 -3,1.346 -3,3 0,1.654 1.346,3 3,3 h 20 c 1.654,0 3,-1.346 3,-3 0,-1.654 -1.346,-3 -3,-3 H 8 V 62.397 c 0,-1.913 1.34,-3.89 3.116,-4.598 0.029,-0.012 2.826,-1.133 4.822,-2.387 C 24.743,49.881 30,40.381 30,30 30,18.796 26.103,0 0,0 M 83.957,32.863 61.754,46.645 C 61.408,46.859 61,47.594 61,48 v 20.343 c 2.328,0.825 4,3.05 4,5.657 0,3.309 -2.691,6 -6,6 H 43 c -3.309,0 -6,-2.691 -6,-6 0,-2.607 1.672,-4.832 4,-5.657 V 48 c 0,-0.406 -0.408,-1.141 -0.754,-1.355 L 31.991,41.52 c -2.526,7.046 -7.343,13.144 -13.925,17.279 -2.3,1.445 -5.339,2.664 -5.468,2.715 C 12.335,61.619 12,62.114 12,62.397 v 19.894 c 2.889,0.862 5,3.544 5,6.709 0,3.859 -3.141,7 -7,7 h -20 c -3.859,0 -7,-3.141 -7,-7 0,-3.165 2.111,-5.847 5,-6.709 V 62.397 c 0,-0.283 -0.336,-0.778 -0.599,-0.883 -0.128,-0.051 -3.167,-1.27 -5.465,-2.714 C -28.043,52.532 -34,41.766 -34,30 -34,8.393 -21.607,-4 0,-4 c 21.607,0 34,12.393 34,34 0,2.572 -0.301,5.092 -0.85,7.532 l 9.205,5.714 C 43.888,44.197 45,46.196 45,48 v 20 h 4 c 1.104,0 2,0.896 2,2 0,1.104 -0.896,2 -2,2 h -4 -2 c -1.103,0 -2,0.897 -2,2 0,1.103 0.897,2 2,2 h 16 c 1.103,0 2,-0.897 2,-2 0,-1.103 -0.897,-2 -2,-2 H 57 V 48 c 0,-1.804 1.112,-3.803 2.645,-4.754 L 81.848,29.465 C 84.06,28.092 86,24.604 86,22 V 10 C 86,4.486 81.514,0 76,0 H 29 v -4 h 47 c 7.72,0 14,6.28 14,14 v 12 c 0,3.988 -2.654,8.76 -6.043,10.863" />
      </g>
      <g
         transform="translate(368.9443,143.2666)"
         id="g1102">
        <path
           inkscape:connector-curvature="0"
           id="path1104"
           style="fill:#262626;fill-opacity:1;fill-rule:nonzero;stroke:none"
           d="m 0,0 c 0.328,-0.204 0.692,-0.301 1.053,-0.301 0.669,0 1.322,0.335 1.701,0.946 0.583,0.938 0.294,2.171 -0.645,2.753 l -14.83,9.206 c -0.937,0.583 -2.172,0.295 -2.754,-0.645 -0.583,-0.938 -0.294,-2.172 0.645,-2.754 z" />
      </g>
      <g
         transform="translate(353,169)"
         id="g1106">
        <path
           inkscape:connector-curvature="0"
           id="path1108"
           style="fill:#262626;fill-opacity:1;fill-rule:nonzero;stroke:none"
           d="M 0,0 V 6 C 0,7.104 -0.896,8 -2,8 -3.104,8 -4,7.104 -4,6 V 0 c 0,-1.104 0.896,-2 2,-2 1.104,0 2,0.896 2,2" />
      </g>
      <g
         transform="translate(335,205)"
         id="g1110">
        <path
           inkscape:connector-curvature="0"
           id="path1112"
           style="fill:#262626;fill-opacity:1;fill-rule:nonzero;stroke:none"
           d="m 0,0 c 1.103,0 2,-0.897 2,-2 0,-1.103 -0.897,-2 -2,-2 -1.103,0 -2,0.897 -2,2 0,1.103 0.897,2 2,2 m 0,-8 c 3.309,0 6,2.691 6,6 0,3.309 -2.691,6 -6,6 -3.309,0 -6,-2.691 -6,-6 0,-3.309 2.691,-6 6,-6" />
      </g>
      <g
         transform="translate(351,220)"
         id="g1114">
        <path
           inkscape:connector-curvature="0"
           id="path1116"
           style="fill:#262626;fill-opacity:1;fill-rule:nonzero;stroke:none"
           d="m 0,0 c 1.103,0 2,-0.897 2,-2 0,-1.103 -0.897,-2 -2,-2 -1.103,0 -2,0.897 -2,2 0,1.103 0.897,2 2,2 m 0,-8 c 3.309,0 6,2.691 6,6 0,3.309 -2.691,6 -6,6 -3.309,0 -6,-2.691 -6,-6 0,-3.309 2.691,-6 6,-6" />
      </g>
      <g
         transform="translate(279,214)"
         id="g1118">
        <path
           inkscape:connector-curvature="0"
           id="path1120"
           style="fill:#262626;fill-opacity:1;fill-rule:nonzero;stroke:none"
           d="M 0,0 H 4 V 3 H 7 V 7 H 4 v 3 H 0 V 7 H -3 V 3 h 3 z" />
      </g>
    </g>
  </g>
</svg>
